<?xml version="1.0" encoding="UTF-8"?>
<svg id="Capa_1" xmlns="http://www.w3.org/2000/svg" version="1.1" viewBox="0 0 48 48">
  <!-- Generator: Adobe Illustrator 30.3.0, SVG Export Plug-In . SVG Version: 2.1.3 Build 182)  -->
  <defs>
    <style>
      .st0 {
        fill: #2799fd;
      }

      .st1 {
        fill: #3879fe;
      }

      .st2 {
        fill: #3580fd;
      }

      .st3 {
        fill: #1dacfd;
      }

      .st4 {
        fill: #14bdfd;
      }

      .st5 {
        fill: #2a93fd;
      }

      .st6 {
        fill: #22a2fd;
      }

      .st7 {
        fill: #3772ed;
      }

      .st8 {
        fill: #3c61e6;
      }

      .st9 {
        fill: #3186fd;
      }

      .st10 {
        fill: #4057df;
      }

      .st11 {
        fill: #3f5ae2;
      }

      .st12 {
        fill: #2e8dfd;
      }

      .st13 {
        fill: #fefefe;
      }

      .st14 {
        fill: #18b5fd;
      }
    </style>
  </defs>
  <path class="st8" d="M37.5,23.9l1.7,3.1,1.3,2.5h-.5s-14.4,14.4-14.4,14.4c-.2.2-.2.3-.2.5h-3.7s-1.3-2.4-1.3-2.4c.2,0,0-.3,0-.5l3.9-3.9c.1-.1.2-.2.2-.3,1.7,0,3.3-.6,4.5-1.8l6.1-6.1c2-2,2.4-5,1-7.4.2,0,.2,0,.3.2l.9,1.7Z"/>
  <path class="st14" d="M22.3,3.6c0,.2,0,.4-.3.6l-6.2,6.2c-.1,0-.2.2-.2.3-2.8-.2-5.1,1.8-5,4.7v.7c-.2,0-.3.1-.5.3l-6.3,6.3c-.1.1-.2.2-.3,0l.2-7.2c.1,0,.2,0,.3-.2L15.3,4.2c.1-.1.2-.2.2-.4l6.8-.2Z"/>
  <path class="st0" d="M40.8,6.1c0,.1,0,.2-.2.3l-9.6,9.6c-.1.1-.2.1-.3.2l-3.8-3.8c.1,0,.2,0,.3-.2l7.7-7.7c.2-.1.2-.3.2-.5,2.1.1,4,.7,5.6,2.1Z"/>
  <path class="st10" d="M42.2,32.5l1.7,2.9c-.2,4.3-3.3,8-7.7,8.5l-5.7.4c0-.1,0-.2.2-.3l11.2-11.2c.1-.1.2-.2.3-.2Z"/>
  <path class="st11" d="M40.6,29.5l1.7,3c-.2,0-.2.1-.3.2l-11.2,11.2c-.1.1-.1.2-.2.3h-5.1s0-.2.2-.3l14.4-14.4h.5Z"/>
  <path class="st0" d="M14,30.8l.8,1.5c0,.2-.2.3-.4.5l-8.3,8.3c-1.2-1.3-2-3-2.1-4.8.2,0,.3-.1.5-.3l7.7-7.7c.1-.1,0-.3.2-.4l1.7,2.9Z"/>
  <path class="st3" d="M10.6,16.1v7.4c-.1,0-.3,0-.4.2l-6.1,6.1c-.1.1-.3.2-.5.3v-7.4c0,0,0,0,.2,0l6.3-6.3c.2-.2.3-.2.5-.3Z"/>
  <path class="st4" d="M15.5,3.8c0,.1,0,.2-.2.4L4,15.4c-.1.1-.2.2-.3.2,0-1.2.1-2.4.2-3.7.5-4.2,3.8-7.6,8.1-7.9l3.5-.2Z"/>
  <path class="st3" d="M29.3,3.7c0,.2,0,.4-.2.5l-6.3,6.3c-.1,0-.2.2-.2.3h-7c0-.1,0-.2.2-.3l6.2-6.2c.2-.2.3-.4.3-.6h6.9Z"/>
  <path class="st6" d="M10.5,23.6c0,1.2.4,2.4,1.2,3.2,0,0,0,.1,0,.1,0,0,0,0,0,0,0,.2.2.5.4.9-.1,0-.1.3-.2.4l-7.7,7.7c-.2.2-.3.2-.5.3-.2-2.1-.3-4.1-.4-6.1.2,0,.3-.1.5-.3l6.1-6.1c.1-.1.2-.2.4-.2Z"/>
  <path class="st12" d="M43,8.9c.5,1.1.8,2.3.9,3.6v.7c0-.1-.1,0-.3,0l-7.9,7.9-2.6-2.6,9.5-9.5c.1-.1.2-.2.4-.2Z"/>
  <path class="st5" d="M43,8.9c-.2,0-.2,0-.4.2l-9.5,9.5-2.3-2.3c.1,0,.2,0,.3-.2l9.6-9.6c.1,0,.2-.2.2-.3.9.8,1.6,1.7,2.2,2.8Z"/>
  <path class="st6" d="M35.2,4c0,.2,0,.3-.2.5l-7.7,7.7c-.1.1-.2.1-.3.2-.9-.9-1.9-1.6-3.2-1.6h-1.1c0-.1,0-.2.2-.3l6.3-6.3c.2-.1.2-.3.2-.5l5.9.3Z"/>
  <path class="st12" d="M18.6,38.8l-4.7,4.7c-.2.2-.3.3-.3.5h-2c-1.2-.2-2.2-.6-3.2-1.2l7.7-7.7c.1-.1,0-.3.2-.4l2.3,4.1Z"/>
  <path class="st9" d="M43.9,13.1l.2,4.8c-.2,0-.3,0-.4.2l-5.7,5.7c-.1,0-.4,0-.5.1l-.9-1.7c0-.1-.1-.2-.3-.2-.2-.3-.4-.7-.6-.9l7.9-7.9c.1-.1.2-.2.3,0Z"/>
  <path class="st5" d="M16.3,34.8c0,.1,0,.3-.2.4l-7.7,7.7c-.9-.5-1.7-1.1-2.3-1.9l8.3-8.3c.2-.2.3-.3.4-.5l1.5,2.6Z"/>
  <path class="st1" d="M44.3,22.5c.1,4.4-.2,8.6-.3,13l-1.7-2.9-1.7-3-1.3-2.5c.2,0,.4-.2.5-.3l4.2-4.2c.1-.1.2-.1.3,0Z"/>
  <path class="st2" d="M44.2,17.9v4.6c0,0,0,0-.2,0l-4.2,4.2c-.2.2-.3.3-.5.3l-1.7-3.1c0-.2.3,0,.5-.1l5.7-5.7c.2-.2.2-.2.4-.2Z"/>
  <path class="st9" d="M20.1,41.4c-.1,0-.2,0-.3.2l-2.4,2.4c0,0-.2.1-.2.2s0,.1,0,.2l-3.6-.2c0-.2.2-.3.3-.5l4.7-4.7,1.4,2.5Z"/>
  <path class="st2" d="M20.1,41.4l.4.6,1.3,2.4h-4.5c0-.2,0-.2,0-.3,0,0,0-.1.2-.2l2.4-2.4c0,0,.2-.1.3-.2Z"/>
  <path class="st13" d="M15.6,10.7h7s1.1,0,1.1,0c1.3,0,2.4.7,3.2,1.6l3.8,3.8,2.3,2.3,2.6,2.6c.2.2.4.6.6.9,1.4,2.4,1,5.4-1,7.4l-6.1,6.1c-1.2,1.2-2.9,1.8-4.5,1.8s-3.1-.7-4.2-1.9l-5.6-5.6-2.9-2.8s0,0,0,0c0,0,0,0,0-.1-.8-.9-1.2-2-1.2-3.2v-7.4s0-.7,0-.7c-.1-2.9,2.3-4.9,5-4.7ZM16.8,16c-.4,0-.8.4-.9.8s.1.9.5,1.3.7.7,1.3.6.8-.4.9-.9c.2-.8-.9-2-1.7-1.8ZM26,29l2.6-2.6c.4-.4.4-1.2,0-1.6s-1.1-.4-1.5,0l-2.5,2.5c-.4.4-.4,1.1,0,1.5s1.1.4,1.5,0Z"/>
  <path class="st7" d="M24.7,37.3c0,.1,0,.2-.2.3l-3.9,3.9c0,.1,0,.4,0,.5l-.4-.6-1.4-2.5-2.3-4.1-1.5-2.6-.8-1.5c.2,0,.4-.5.8-.9l5.6,5.6c1.2,1.2,2.6,1.9,4.2,1.9Z"/>
  <path class="st9" d="M14.8,29.9c-.5.4-.6.9-.8.9l-1.7-2.9c-.2-.3-.4-.6-.4-.9l2.9,2.8Z"/>
  <path class="st9" d="M11.9,26.9c0,0-.1,0,0-.1,0,0,0,0,0,.1Z"/>
  <path class="st7" d="M26,29c-.5.5-1.1.4-1.5,0s-.5-1.1,0-1.5l2.5-2.5c.5-.5,1.1-.5,1.5,0s.5,1.1,0,1.6l-2.6,2.6Z"/>
  <path class="st6" d="M16.8,16c.9-.1,1.9,1,1.7,1.8s-.5.8-.9.9-.9-.2-1.3-.6-.6-.7-.5-1.3.5-.7.9-.8Z"/>
</svg>